<svg width="64" height="64" viewBox="0 0 64 64" fill="none" xmlns="http://www.w3.org/2000/svg">
<circle cx="32" cy="32" r="31.5" fill="white" stroke="#E0DEF7"/>
<circle cx="32" cy="32" r="28" fill="#E0DEF7"/>
<path d="M39.3733 26.36C39.28 26.3466 39.1867 26.3466 39.0933 26.36C37.0267 26.2933 35.3867 24.6 35.3867 22.52C35.3867 20.4 37.1067 18.6666 39.24 18.6666C41.36 18.6666 43.0933 20.3866 43.0933 22.52C43.08 24.6 41.44 26.2933 39.3733 26.36Z" fill="white"/>
<path d="M43.72 35.6C42.2267 36.6 40.1334 36.9734 38.2 36.72C38.7067 35.6267 38.9734 34.4134 38.9867 33.1334C38.9867 31.8001 38.6934 30.5334 38.1334 29.4267C40.1067 29.16 42.2 29.5334 43.7067 30.5334C45.8134 31.92 45.8134 34.2 43.72 35.6Z" fill="white"/>
<path d="M24.5867 26.36C24.68 26.3466 24.7733 26.3466 24.8667 26.36C26.9333 26.2933 28.5733 24.6 28.5733 22.52C28.5733 20.3866 26.8533 18.6666 24.72 18.6666C22.6 18.6666 20.88 20.3866 20.88 22.52C20.88 24.6 22.52 26.2933 24.5867 26.36Z" fill="white"/>
<path d="M24.7333 33.1334C24.7333 34.4267 25.0133 35.6534 25.52 36.7601C23.64 36.9601 21.68 36.5601 20.24 35.6134C18.1333 34.2134 18.1333 31.9334 20.24 30.5334C21.6666 29.5734 23.68 29.1867 25.5733 29.4001C25.0266 30.5201 24.7333 31.7867 24.7333 33.1334Z" fill="white"/>
<path d="M32.16 37.16C32.0534 37.1467 31.9334 37.1467 31.8134 37.16C29.36 37.08 27.4 35.0667 27.4 32.5867C27.4134 30.0533 29.4534 28 32 28C34.5334 28 36.5867 30.0533 36.5867 32.5867C36.5734 35.0667 34.6267 37.08 32.16 37.16Z" fill="white"/>
<path d="M27.8267 39.92C25.8133 41.2667 25.8133 43.48 27.8267 44.8134C30.12 46.3467 33.88 46.3467 36.1733 44.8134C38.1867 43.4667 38.1867 41.2534 36.1733 39.92C33.8933 38.3867 30.1333 38.3867 27.8267 39.92Z" fill="white"/>
<path d="M40 48C40 43.5817 43.5817 40 48 40H56C60.4183 40 64 43.5817 64 48V56C64 60.4183 60.4183 64 56 64H48C43.5817 64 40 60.4183 40 56V48Z" fill="#7065F0"/>
<path d="M57.1933 53.9534C55.82 55.32 53.8533 55.74 52.1267 55.2L48.9867 58.3334C48.76 58.5667 48.3133 58.7067 47.9933 58.66L46.54 58.46C46.06 58.3934 45.6133 57.94 45.54 57.46L45.34 56.0067C45.2933 55.6867 45.4467 55.24 45.6667 55.0134L48.8 51.88C48.2667 50.1467 48.68 48.18 50.0533 46.8134C52.02 44.8467 55.2133 44.8467 57.1867 46.8134C59.16 48.78 59.16 51.9867 57.1933 53.9534Z" fill="white"/>
<path d="M48.5933 55.66L50.1267 57.1934" stroke="#7065F0" stroke-width="2" stroke-miterlimit="10" stroke-linecap="round" stroke-linejoin="round"/>
<path d="M53.6667 51.3334C54.219 51.3334 54.6667 50.8857 54.6667 50.3334C54.6667 49.7811 54.219 49.3334 53.6667 49.3334C53.1144 49.3334 52.6667 49.7811 52.6667 50.3334C52.6667 50.8857 53.1144 51.3334 53.6667 51.3334Z" fill="#7065F0" stroke="#7065F0" stroke-width="2" stroke-linecap="round" stroke-linejoin="round"/>
</svg>
